<svg width="45" height="45" viewBox="0 0 45 45" fill="none" xmlns="http://www.w3.org/2000/svg">
<rect width="45" height="45" rx="22.5" fill="#DBE7FF"/>
<path d="M15.8125 21.4263V27.0806C15.8125 27.8326 15.2217 28.4331 14.4697 28.4331C13.7227 28.4331 13 27.8277 13 27.0806V21.4263C13 20.689 13.7227 20.0835 14.4697 20.0835C15.207 20.0835 15.8125 20.689 15.8125 21.4263ZM16.3398 29.0923C16.3398 29.8931 16.9844 30.5376 17.7852 30.5376H18.7568L18.7715 33.521C18.7715 35.3228 21.4668 35.3081 21.4668 33.521V30.5376H23.2832V33.521C23.2832 35.313 25.9932 35.3179 25.9932 33.521V30.5376H26.9795C27.7705 30.5376 28.415 29.8931 28.415 29.0923V20.3326H16.3398V29.0923ZM28.4492 19.8589H16.2861C16.2861 17.7691 17.5361 15.9527 19.3916 15.0054L18.459 13.2818C18.3223 13.0425 18.6689 12.8912 18.7861 13.0962L19.7334 14.8345C21.4375 14.0777 23.3955 14.1167 25.0215 14.8345L25.9639 13.1011C26.0859 12.8912 26.4277 13.0474 26.291 13.2867L25.3584 15.0054C27.1992 15.9527 28.4492 17.7691 28.4492 19.8589ZM20.1143 17.149C20.1143 16.8706 19.8896 16.6363 19.6016 16.6363C19.3232 16.6363 19.1035 16.8706 19.1035 17.149C19.1035 17.4273 19.3281 17.6617 19.6016 17.6617C19.8896 17.6617 20.1143 17.4273 20.1143 17.149ZM25.6514 17.149C25.6514 16.8706 25.4268 16.6363 25.1533 16.6363C24.8652 16.6363 24.6406 16.8706 24.6406 17.149C24.6406 17.4273 24.8652 17.6617 25.1533 17.6617C25.4268 17.6617 25.6514 17.4273 25.6514 17.149ZM30.2803 20.0835C29.543 20.0835 28.9375 20.6744 28.9375 21.4263V27.0806C28.9375 27.8326 29.543 28.4331 30.2803 28.4331C31.0322 28.4331 31.75 27.8277 31.75 27.0806V21.4263C31.75 20.6744 31.0273 20.0835 30.2803 20.0835Z" fill="black"/>
</svg>
