<svg width="50" height="50" viewBox="0 0 50 50" fill="none" xmlns="http://www.w3.org/2000/svg">
<g clip-path="url(#clip0_2510_467)">
<path fill-rule="evenodd" clip-rule="evenodd" d="M26.7066 50H2.75977C1.23516 50 0 48.7641 0 47.2402V2.75977C0 1.23516 1.23516 0 2.75977 0H47.2406C48.7645 0 50 1.23516 50 2.75977V47.2402C50 48.7645 48.7645 50 47.2406 50H34.4992V30.6371H40.9984L41.9715 23.091H34.4992V18.2734C34.4992 16.0887 35.1059 14.6 38.2387 14.6L42.2344 14.5984V7.84922C41.5434 7.75742 39.1715 7.55195 36.4117 7.55195C30.6504 7.55195 26.7062 11.0688 26.7062 17.5266V23.0914H20.1906V30.6375H26.7066V50Z" fill="#4460A0"/>
</g>
<defs>
<clipPath id="clip0_2510_467">
<rect width="50" height="50" fill="white"/>
</clipPath>
</defs>
</svg>
